<mxfile host="app.diagrams.net" agent="Mozilla/5.0 (Windows NT 10.0; Win64; x64; rv:131.0) Gecko/20100101 Firefox/131.0" version="24.8.0">
  <diagram name="Page-1" id="YargFCSNaIJtaRtmj2TQ">
    <mxGraphModel dx="956" dy="503" grid="0" gridSize="10" guides="1" tooltips="1" connect="1" arrows="1" fold="1" page="1" pageScale="1" pageWidth="850" pageHeight="1100" math="0" shadow="0">
      <root>
        <mxCell id="0" />
        <mxCell id="1" parent="0" />
        <mxCell id="iPP8uc5UnlC_QcapbXqh-4" value="COURSE" style="whiteSpace=wrap;html=1;align=center;" vertex="1" parent="1">
          <mxGeometry x="332" y="429" width="78" height="42" as="geometry" />
        </mxCell>
        <mxCell id="iPP8uc5UnlC_QcapbXqh-6" value="" style="endArrow=none;html=1;rounded=0;entryX=0.085;entryY=0.016;entryDx=0;entryDy=0;entryPerimeter=0;exitX=1;exitY=1;exitDx=0;exitDy=0;" edge="1" parent="1" source="iPP8uc5UnlC_QcapbXqh-7" target="iPP8uc5UnlC_QcapbXqh-4">
          <mxGeometry relative="1" as="geometry">
            <mxPoint x="295" y="412" as="sourcePoint" />
            <mxPoint x="486" y="505" as="targetPoint" />
          </mxGeometry>
        </mxCell>
        <mxCell id="iPP8uc5UnlC_QcapbXqh-7" value="TITLE" style="ellipse;whiteSpace=wrap;html=1;align=center;fontStyle=4;" vertex="1" parent="1">
          <mxGeometry x="266" y="387" width="53" height="30" as="geometry" />
        </mxCell>
        <mxCell id="iPP8uc5UnlC_QcapbXqh-8" value="" style="endArrow=none;html=1;rounded=0;exitX=0.25;exitY=0;exitDx=0;exitDy=0;entryX=0.5;entryY=1;entryDx=0;entryDy=0;" edge="1" parent="1" source="iPP8uc5UnlC_QcapbXqh-4" target="iPP8uc5UnlC_QcapbXqh-9">
          <mxGeometry relative="1" as="geometry">
            <mxPoint x="326" y="485" as="sourcePoint" />
            <mxPoint x="340" y="389" as="targetPoint" />
          </mxGeometry>
        </mxCell>
        <mxCell id="iPP8uc5UnlC_QcapbXqh-9" value="DEPARTMENT" style="ellipse;whiteSpace=wrap;html=1;align=center;" vertex="1" parent="1">
          <mxGeometry x="288" y="346" width="97" height="34" as="geometry" />
        </mxCell>
        <mxCell id="iPP8uc5UnlC_QcapbXqh-10" value="" style="endArrow=none;html=1;rounded=0;exitX=0.75;exitY=0;exitDx=0;exitDy=0;entryX=0.438;entryY=0.978;entryDx=0;entryDy=0;entryPerimeter=0;" edge="1" parent="1" source="iPP8uc5UnlC_QcapbXqh-4" target="iPP8uc5UnlC_QcapbXqh-11">
          <mxGeometry relative="1" as="geometry">
            <mxPoint x="326" y="505" as="sourcePoint" />
            <mxPoint x="406" y="395" as="targetPoint" />
          </mxGeometry>
        </mxCell>
        <mxCell id="iPP8uc5UnlC_QcapbXqh-11" value="NUMBER" style="ellipse;whiteSpace=wrap;html=1;align=center;" vertex="1" parent="1">
          <mxGeometry x="360" y="383" width="67" height="31" as="geometry" />
        </mxCell>
        <mxCell id="iPP8uc5UnlC_QcapbXqh-12" value="" style="endArrow=none;html=1;rounded=0;exitX=1;exitY=0.25;exitDx=0;exitDy=0;" edge="1" parent="1" source="iPP8uc5UnlC_QcapbXqh-4" target="iPP8uc5UnlC_QcapbXqh-13">
          <mxGeometry relative="1" as="geometry">
            <mxPoint x="326" y="505" as="sourcePoint" />
            <mxPoint x="486" y="505" as="targetPoint" />
          </mxGeometry>
        </mxCell>
        <mxCell id="iPP8uc5UnlC_QcapbXqh-13" value="DESCRIPTION" style="ellipse;whiteSpace=wrap;html=1;align=center;" vertex="1" parent="1">
          <mxGeometry x="401" y="352" width="98" height="35" as="geometry" />
        </mxCell>
        <mxCell id="iPP8uc5UnlC_QcapbXqh-14" value="" style="endArrow=none;html=1;rounded=0;exitX=1;exitY=0.5;exitDx=0;exitDy=0;" edge="1" parent="1" source="iPP8uc5UnlC_QcapbXqh-4" target="iPP8uc5UnlC_QcapbXqh-15">
          <mxGeometry relative="1" as="geometry">
            <mxPoint x="326" y="505" as="sourcePoint" />
            <mxPoint x="486" y="505" as="targetPoint" />
          </mxGeometry>
        </mxCell>
        <mxCell id="iPP8uc5UnlC_QcapbXqh-15" value="NUM_CREDITS" style="ellipse;whiteSpace=wrap;html=1;align=center;" vertex="1" parent="1">
          <mxGeometry x="434" y="403" width="100" height="40" as="geometry" />
        </mxCell>
        <mxCell id="iPP8uc5UnlC_QcapbXqh-25" value="PREREQUISITE" style="shape=rhombus;perimeter=rhombusPerimeter;whiteSpace=wrap;html=1;align=center;" vertex="1" parent="1">
          <mxGeometry x="310.5" y="525" width="121" height="60" as="geometry" />
        </mxCell>
        <mxCell id="iPP8uc5UnlC_QcapbXqh-26" value="" style="shape=link;html=1;rounded=0;exitX=0.5;exitY=1;exitDx=0;exitDy=0;entryX=0.5;entryY=0;entryDx=0;entryDy=0;" edge="1" parent="1" source="iPP8uc5UnlC_QcapbXqh-4" target="iPP8uc5UnlC_QcapbXqh-25">
          <mxGeometry relative="1" as="geometry">
            <mxPoint x="326" y="525" as="sourcePoint" />
            <mxPoint x="486" y="525" as="targetPoint" />
          </mxGeometry>
        </mxCell>
        <mxCell id="iPP8uc5UnlC_QcapbXqh-27" value="N" style="resizable=0;html=1;whiteSpace=wrap;align=right;verticalAlign=bottom;" connectable="0" vertex="1" parent="iPP8uc5UnlC_QcapbXqh-26">
          <mxGeometry x="1" relative="1" as="geometry">
            <mxPoint x="-9" y="4" as="offset" />
          </mxGeometry>
        </mxCell>
        <mxCell id="iPP8uc5UnlC_QcapbXqh-29" value="(0, n)" style="edgeLabel;html=1;align=center;verticalAlign=middle;resizable=0;points=[];" vertex="1" connectable="0" parent="iPP8uc5UnlC_QcapbXqh-26">
          <mxGeometry x="0.5062" y="2" relative="1" as="geometry">
            <mxPoint x="-21" y="-18" as="offset" />
          </mxGeometry>
        </mxCell>
        <mxCell id="iPP8uc5UnlC_QcapbXqh-30" value="1" style="edgeLabel;html=1;align=center;verticalAlign=middle;resizable=0;points=[];" vertex="1" connectable="0" parent="iPP8uc5UnlC_QcapbXqh-26">
          <mxGeometry x="0.037" relative="1" as="geometry">
            <mxPoint x="11" y="21" as="offset" />
          </mxGeometry>
        </mxCell>
        <mxCell id="iPP8uc5UnlC_QcapbXqh-31" value="(1,1)" style="edgeLabel;html=1;align=center;verticalAlign=middle;resizable=0;points=[];" vertex="1" connectable="0" parent="iPP8uc5UnlC_QcapbXqh-26">
          <mxGeometry x="0.5309" relative="1" as="geometry">
            <mxPoint x="15" y="-19" as="offset" />
          </mxGeometry>
        </mxCell>
      </root>
    </mxGraphModel>
  </diagram>
</mxfile>
